<svg xmlns="http://www.w3.org/2000/svg" version="1.1" xmlns:xlink="http://www.w3.org/1999/xlink" viewBox="0 0 200 200"><rect width="200" height="200" fill="url('#gradient')"></rect><defs><linearGradient id="gradient" gradientTransform="rotate(0 0.5 0.5)"><stop offset="0%" stop-color="#ffffff"></stop><stop offset="100%" stop-color="#ffffff"></stop></linearGradient></defs><g><g fill="#1b3855" transform="matrix(4.476797471688175,0,0,4.476797471688175,12.205740402226454,131.82940548790546)" stroke="#0e5278" stroke-width="0.35"><path d="M6.69-4.82L4.50-4.82L4.50 0L1.07 0L1.07-14.22L6.75-14.22Q8.38-14.22 9.63-13.62Q10.89-13.02 11.58-11.91Q12.27-10.80 12.27-9.39L12.27-9.39Q12.27-7.31 10.78-6.07Q9.29-4.82 6.69-4.82L6.69-4.82ZM4.50-11.57L4.50-7.47L6.75-7.47Q7.74-7.47 8.27-7.97Q8.79-8.47 8.79-9.38L8.79-9.38Q8.79-10.37 8.25-10.97Q7.71-11.56 6.79-11.57L6.79-11.57L4.50-11.57ZM21.88 0L19.38-5.02L17.52-5.02L17.52 0L14.09 0L14.09-14.22L19.69-14.22Q22.22-14.22 23.64-13.10Q25.07-11.97 25.07-9.92L25.07-9.92Q25.07-8.44 24.47-7.46Q23.87-6.48 22.59-5.88L22.59-5.88L25.56-0.15L25.56 0L21.88 0ZM17.52-11.57L17.52-7.67L19.69-7.67Q20.66-7.67 21.16-8.18Q21.65-8.69 21.65-9.61Q21.65-10.53 21.15-11.05Q20.65-11.57 19.69-11.57L19.69-11.57L17.52-11.57ZM32.91 0L27.14 0L27.14-14.22L32.25-14.22Q34.99-14.22 36.42-13.21Q37.85-12.21 37.85-10.29L37.85-10.29Q37.85-9.19 37.34-8.41Q36.84-7.63 35.85-7.26L35.85-7.26Q36.96-6.96 37.56-6.16Q38.15-5.36 38.15-4.21L38.15-4.21Q38.15-2.12 36.83-1.07Q35.51-0.02 32.91 0L32.91 0ZM32.97-6.04L30.57-6.04L30.57-2.64L32.81-2.64Q33.74-2.64 34.24-3.06Q34.74-3.49 34.74-4.26L34.74-4.26Q34.74-6.04 32.97-6.04L32.97-6.04ZM30.57-11.57L30.57-8.29L32.35-8.29Q33.48-8.30 33.96-8.70Q34.43-9.10 34.43-9.88L34.43-9.88Q34.43-10.78 33.92-11.18Q33.40-11.57 32.25-11.57L32.25-11.57L30.57-11.57Z"></path></g></g></svg>